<svg xmlns="http://www.w3.org/2000/svg" width="764" height="373"><g fill="none" fill-rule="evenodd" opacity=".1"><path d="M140.266 92.504c5.67-1.294 5.134-8.791 10.445-10.444-6.58.383-8.912 5.014-10.445 10.444zm82.719-65.97c-.501.143-1.28.018-1.298.644.51-.143 1.29-.009 1.298-.644zm208.499 187.522c-5.443-.895-7.252 1.862-6.5 7.162 4.727 2.47 7.52-3.894 6.5-7.162zm10.95-63.969c-1.919-7.556-6.91-12.023-11.103-17.299h-3.073c.653 8.432 9.906 13.53 10.475 24.106 5.373 6.977 9.6 15.095 17.876 19.162-.984-4.16-2.07-8.22-4.931-10.509 1.926-5.547-6.723-10.33-9.244-15.46zM170.375 87.05c-2.507.09-5.712-.51-6.5 1.299 1.8.644 6.446 1.602 6.5-1.298zm261.931 158.37c.17 1.933-1.817 3.956.645 4.547.564-.546 1.782-5.076-.645-4.547zM493.88 25.314c2.954.32 4.244-.9 3.912-3.675-2.99-1.867-4.808-4.844-7.807-6.719-.018 5.037 7.682 5.348 3.895 10.394zm-6.304 56.348c-.135 2.516 1.03 3.733 3.25 3.903 1.316-1.647-.144-4.673-3.25-3.903zM477.96 94.92c-4.547-2.258-9.095-4.79-12.29-9.68 1.094-1.6 2.866-2.574 5.82-2.425.463-1.849-.658-2.199-.65-3.632-7.618-.674-11.774 1.891-14.23 6.057 2.322 5.29 7.297 8.097 10.341 12.712-1.263 1.025-1.735 2.816-1.94 4.84 2.679 2.941 8.758 6.365 13.582 3.632 1.904-4.398-3.605-6.03-3.88-10.288 1.227-.275 3.906.817 3.248-1.216zm46.636-15.305c.108.77-.116 1.845.654 1.952.036-.394.098-.77.654-.645-.072-.805-.197-1.548-1.308-1.307zm72.594-24.411c1.62 3.959-1.532 6.324-3.25 8.952 2.65-.567 3.482-2.776 5.855-3.58.053-2.637.125-5.29-2.606-5.372zM560.03 7.976c-1.656.286-2.99.913-3.904 1.951 1.979.027 3.313-.6 3.904-1.951zM159.664 90.921c-3.108.743-7.034.645-8.953 2.597 3.116 1.629 7.368-.555 8.953-2.597zm261.233 143.915c-1.549-1.7-.734-5.774-2.605-7.152-1.62 2.596.448 6.248 2.605 7.152zM415.385 94.47c1.513-.245 1.366 1.12 3.14.614 8.085-7.159 17.39 3.537 27.64-.615-.217-7.74-10.145-6.03-13.198-11.008.588-1.465 2.516-1.617 1.876-4.286-3.346-.405-5.37.48-6.9 1.836-.477 2.088 2.55.774 1.884 3.057-1.539.547-2.732 1.423-5.033 1.221-2.828-1.735-3.347-5.71-8.795-4.893-4.463 4.438-5.518 12.465-5.647 16.516 3.087.564 2.395-2.552 5.033-2.443zm-40.528-36.282c4.672-3.45 10.014.033 13.927-2.997-.14-3.113.323-5.674 2.528-6.58 2.466-.461 3.285 2.215 5.063.601 1.037-4.134-4.418-1.219-5.063-2.396 1.778-4.101 9.804-2.306 14.563-3.59-4.854-4.324-19.34 5.17-17.727-7.774 1.264-2.99 6.249-2.47 6.964-5.979-1.081-1.96-3.565-.807-5.7-.601-.436 6.168-9.97 3.747-9.5 10.763.532 1.894 3.26 1.704 3.8 3.59-.854 2.182-3.765 2.43-5.064 4.192-.462 1.828 1.09 1.754.637 3.59-4.69 1.952-8.507 4.719-15.191 4.785 1.35 3.738 7.722-.23 10.763 2.396zm54.331 64.644c1.642-4.517 5.372-10.32 2.48-15.683-3.558-.467-4.576 1.65-7.459 1.882-1.402-.673-2.728-1.425-3.72-2.513-2.447-.155-2.31 2.271-4.98 1.883-8.4.112-8.203-8.447-11.804-13.17-1.976-1.745-3.208 2.582-6.21 1.882-.616 3.964 4.149 2.496 3.73 6.27-2.327.371-2.498 2.92-4.346 3.766h-1.865c-1.83-5.666-7.528-7.462-7.46-15.054-6.894-2.055-11.504-9.664-18.014-10.035 1.428 8.395 10.462 9.094 14.91 14.431-1.651.009-3.661-.354-3.73 1.253 2.284 1.364.607 5.415-2.48 5.017-.018-1.477 1.069-1.848.615-3.765-5.628-5.398-13.763-8.274-18.64-14.431-4.182 2.858-7.364 5.31-13.669 3.135-1.172 7.228-11.48 6.978-9.94 15.053-2.968 3.903-10.401 3.29-14.293 6.278 1.958 3.153 6.98 2.332 9.324 1.874 5.15-.993 7.527-5.13 13.669-5.017 6.552.12 11.848-.234 18.648-.63 2.447 3.126 1.608 7.012 0 10.035 9.666 2.15 15.902 7.772 25.474 10.035 1.087-1.408.291-4.715 1.24-6.27 9.11-3.506 16.553 4.543 25.475 4.387 1.916-.034 3.233-1.744 4.978-1.882 3.14-.234 4.842 2.582 8.067 1.27zm-67.116-33.25c.53 2.004-.975 1.943-1.24 3.135-1.095-.155-1.412-1.08-1.25-2.513.557-.484 1.412-.665 2.49-.622zm-3.105 10.666c-1.369-2.332-.984-7.444 3.105-6.279 1.078 2.53 1.018 7.151-3.105 6.28zm18.024 6.279c-3.2.095-4.988-1.244-6.835-2.513.573-2.35 4.987-.82 7.459-1.253.445 1.918-1.078 1.848-.624 3.766zm46.602 5.64c.069-1.598 2.08-1.244 3.73-1.253.53 2.375-2.789 2.22-3.73 1.252zm-305.71-84.635c-.287-4.467-9.388-2.892-8.937 1.298 3.685.349 4.907-2.006 8.937-1.298zm-7.21 13.028c3.473-.215 6.67-.716 8.451-2.605-2.829-2.57-6.231.806-8.451 2.605zm44.885 48.56c1.896-1.987 2.242-5.541 7.09-4.556v-2.597c-2.659.197-5.265-1.772-8.376-.653.116 1.53-2.03 6.884 1.286 7.806zm-1.863-9.546c-.517-9.453-11.832-2.91-14.922 0 4.98-1.71 9.581 2.811 14.922 0zm-19.292-19.106c-3.348-1.012-3.912 2.918-2.605 4.556 2.363-.018 2.856-1.915 2.605-4.556zm25.844 124.745c-.188 1.486.152 2.444 1.298 2.605 1.02-.958.716-2.9-1.298-2.605zM144.742 22.67c-3.402-.242-7.93-2.175-10.445-1.298v1.951c2.77.224 8.984.77 10.445-.653z"/><path fill="#4F8EFF" fill-rule="nonzero" d="M613.195 189.082c8.436 4.507 6.5 19.358 17.873 20.925.145-4.244-2.936-5.27-1.841-10.47-6.102-5.956-17.305-13.013-10.482-24.611 5.262 3.77 10.753 7.311 14.174 12.92 3.742-2.635 7.264-5.465 11.1-8.007 1.774-13.673-10.286-13.529-12.96-22.772 2.547-2.38 3.65-6.2 9.26-5.54.552 1.084 1.485 1.796 1.842 3.075-1.154 1.77-3.76 3.067-2.461 5.532 2.35 1.322 4.218.136 5.55-1.228.662-3.33-1.672-3.66-1.23-6.77 13.222-3.405 25.605-7.666 25.274-24.618-2.614-2-2.25-3.16-3.081-6.769-3.675-2.49-6.408-5.922-9.25-9.234-.043-3.304 5.872-3.312 4.31-6.15-6.365-.433-9.59.618-13.553-3.694 3.165-1.144 3.522-5.092 7.392-5.54 2.478-.01-.017 4.93 2.461 4.921 2.589-3.727 10.448-2.982 9.862 3.076 5.992-.034 6.798 5.108 8.012 9.844 4.048.347 6.764-.636 7.4-3.694-1.485-5.693-6.908-7.463-10.481-11.08 4.311-2.237 1.001-8.363 6.178-9.845 1.274.356 1.749 1.525 3.692 1.237 3.836-2.94 6.747-10.963 5.55-17.232-.695-3.66-5.1-5.167-4.31-8.615 5.227 1.397 6.483 9.86 11.092 9.844-.45-1.881.628-2.237.61-3.694-3.665-4.337-8.953-7.057-12.322-11.69-1.842.008-2.105 1.6-3.7 1.837-3.87-4.77-12.722-1.126-17.263-5.54 2.36-2.779 2.886-7.37 4.931-10.463 9.887-1.5 17.712.144 26.505 0 1.638-1.813-2.292-1.804-1.23-4.922 2.24-5.125 7.4-.567 10.48.61 1.91-.347 1.494-3.024 2.462-4.312 1.527.737 2.41 2.11 3.089 3.694-1.765 2.541-1.596 7.023-3.7 9.226 3.75 8.353 11.338 12.885 19.112 17.231 1.41-2.88-1.782-8.107.62-10.463-2.673-.728-.806-2.787-1.85-4.312-2.317-3.388-8.98-2.787-8.631-8.615 4.532-.797 7.926-2.457 12.95-1.229 2.572-2.779 5.135-7.396 10.482-5.54.22-4.745-6.9-2.144-7.4-6.16 4.786-5.192 11.236 1.746 17.873.62-.272-5.999-7.452-7.278-12.943-6.151-11.89-5.583-28.652-5.075-40.678-8.006-.993.457.128 3.016-1.858 2.465-5.72-2.736-11.789-.449-20.963-1.237-6.832-7.065-24.12-.034-31.436-6.76h-17.873c-1.52.534-1.384 2.72-3.7 2.457-4.643-.966-9.15-.771-12.332 1.228-3.675-1.254-5.398-4.456-8.632-6.15-12.263-1.026-21.37 3.075-32.055 0-2.699-.771-3.395-3.99-4.93-4.923-3.353-2.041-8.301-1.135-14.174-1.846-1.782-.212-2.631-1.66-4.32-1.847-5.805-.652-9.514 2.245-12.943 3.075-5.533-1.762-17.576.847-19.112 4.922-2.92-.246-5.143.195-7.392.61-.11.924.212 2.27-.62 2.465-4.6 1.042-8.292.297-12.331 3.076-3.607-11.242-17.645 2.728-4.94 6.159-5.55-1.229-10.906-2.652-17.262-3.076-.798 1.525 1.807 2.55 0 3.076-10.71-.865-18.841.177-27.736 4.303-1.875-.847 1.808-3.71-1.239-3.693h-2.47c-2.172 1.575 1.783 3.897 0 4.922-4.557-.45-7.23.99-8.011 4.312-2.029-.026-3.064-1.042-5.56-.619-.822 1.737 3.268 1.542 1.24 2.466-4.108 0-5.848-2.373-6.781-5.532 4.854-.56 11.203 2.617 12.95-1.847-4.777-7.37-20.707-3.914-25.282-9.853-11.797-.923-19.91 2.855-30.205 4.922-.305 5.16-6.739 8.057-9.242 12.928-5.737.017-8.233 3.279-12.332 4.922-1.663 10.937 6.747 11.988 12.951 7.379 1.672 2.228 3.904 3.905 4.312 7.387-1.333.517-2.097 1.593-4.312 1.229-.008-1.635.23-3.516-.62-4.304-2.919-.042-4.387 1.364-5.55 3.075.39 2.28 1.672 3.66 1.231 6.77-2.25.414-4.473.855-7.392.61-4.396 4.997-10.066 11.478-17.882 11.08-.73.915-.535 2.745-2.47 2.457-2.673.483-4.464-1.72-4.93 1.228 4.285 1.415 11.126 8.218 5.541 13.538-6.798 1.076-14.547-2.6-18.493 1.229.866 8.099-2.987 10.64-.62 17.231 4.244-.542 7.138.254 7.401 3.694-2.215 7.235-12.586 6.32-11.72 16.613-9.268 6.133-16.253 14.546-21.574 24.61 6.161 7.455-1.927 16.283 0 26.466 4.065 3.736 9.573 6.04 10.481 12.928 6.11 2.304 8.886 9.437 15.412 9.844 5.025.305 10.312-4.651 16.652-1.237 4.846-2.542 9.709-5.066 17.873-4.304 1.68 1.602 1.749 4.812 4.32 5.54 2.928.45 4.235-.694 6.781-.61 7.85 3.78.043 11.32 1.231 17.232.518 2.559 4.77 5.033 6.781 7.998 4.49 6.6 4.77 13.444 6.781 20.925-2.393 5.811-7.604 10.86-6.161 18.46.823 4.295 5.881 8.387 7.392 13.538 1.366 4.608.62 10.022 2.47 14.156 2.02 4.507 7.29 8.463 8.011 13.538-1.612 3.151.204 6.26 2.461 7.387 20.624-.949 35.28-7.862 38.226-26.457 7.638-.424 9.828-8.726 6.161-15.385 4.116-6.354 12.867-8.082 17.263-14.156 1.519-12.386-3.599-18.155-4.312-28.304 7.554-19.748 33.337-24.568 33.286-49.856-7.001.94-22.567 8.166-21.582-2.457 9.65-1.11 21.005-5.66 27.752-11.691 9.395-1.483 12.629-9.133 16.643-16.003-2.8-4.6-9.93-4.863-11.72-10.454-2.275 3.058-5.016 5.659-11.101 4.922-.874-8.158-10.889-7.176-11.101-16.003.823-.627 2.274-.602 3.09-1.229 5.337 4.456 10.548 13.716 20.953 9.226 3.31 8.26 17.229 4.575 27.125 4.922 2.385 3.169 5.474 5.617 9.242 7.387-1.52 3.194 2.368 4.558 4.32 6.16 2.41.16 2.291-2.229 4.922-1.847.569 10.31 5.83 15.926 8.02 24.618 4.609 2.576 3.641 10.726 8.632 12.928 6.942-3.499 7.79-10.903 6.78-20.315 6.29-3.973 9.472-11.056 16.652-14.156.009-1.635-.34-3.626 1.23-3.694 4.737.212 7.996-1.042 11.102-2.465 2.385 7.26 10.863 8.438 10.481 18.468 3.268 1.72 4.43-2.05 7.4-2.465 3.43 6.37 6.774 14.402 4.949 24.068zM415.924 80.152c5.347-.821 5.847 3.186 8.631 4.923 2.258.203 3.429-.686 4.94-1.229.653-2.296-2.318-.974-1.85-3.075 1.501-1.372 3.487-2.253 6.772-1.847.628 2.686-1.273 2.83-1.842 4.312 2.996 5.007 12.74 3.287 12.951 11.073-10.065 4.168-19.197-6.583-27.124.618-1.74.509-1.596-.864-3.08-.618-2.59-.11-1.91 3.024-4.932 2.465.12-4.083 1.154-12.157 5.534-16.621zM380.168 51.23c.45-1.88-1.06-1.813-.62-3.694 1.265-1.812 4.1-2.058 4.932-4.312-.527-1.94-3.183-1.753-3.7-3.693-.46-7.227 8.826-4.728 9.25-11.073 2.07-.212 4.49-1.398 5.55.619-.695 3.609-5.55 3.075-6.78 6.15-1.57 13.326 12.535 3.55 17.262 7.997-4.634 1.314-12.45-.525-14.182 3.694.637 1.203 5.941-1.796 4.931 2.465-1.74 1.66-2.529-1.093-4.93-.618-2.148.932-2.598 3.566-2.462 6.769-3.81 3.117-9.022-.466-13.562 3.084-2.962-2.711-9.175 1.372-10.473-2.457 6.5-.068 10.218-2.915 14.784-4.93zm38.837 176c1.773 1.305 1.001 5.16 2.47 6.77-2.046-.848-4.007-4.304-2.47-6.77zm-2.462-103.38c-8.843.144-16.227-7.743-25.274-4.304-.942 1.525-.153 4.77-1.23 6.15-9.497-2.219-15.684-7.734-25.275-9.843 1.596-2.966 2.428-6.778 0-9.845-6.747.39-11.992.729-18.501.619-6.094-.11-8.445 3.948-13.562 4.922-2.317.44-7.308 1.254-9.251-1.838 3.853-2.932 11.237-2.33 14.181-6.16-1.527-7.929 8.7-7.675 9.862-14.766 6.255 2.135 9.412-.27 13.563-3.075 4.846 6.04 12.908 8.862 18.493 14.156.44 1.881-.628 2.237-.611 3.694 3.063.381 4.727-3.592 2.46-4.922.069-1.576 2.063-1.22 3.701-1.228-4.413-5.236-13.375-5.922-14.793-14.157 6.459.365 11.033 7.828 17.874 9.844-.06 7.447 5.584 9.21 7.4 14.767h1.85c1.834-.83 2.004-3.33 4.312-3.694.416-3.702-4.311-2.262-3.7-6.15 2.979.686 4.21-3.559 6.161-1.847 3.573 4.634 3.378 13.038 11.712 12.92 2.648.38 2.512-2 4.94-1.848.984 1.068 2.3 1.805 3.692 2.466 2.86-.23 3.861-2.305 7.4-1.847 2.869 5.26-.832 10.954-2.461 15.384-3.2 1.288-4.889-1.474-8.02-1.237-1.715.128-3.03 1.805-4.923 1.839zm9.243 96.001c-.705-5.015 1.001-7.624 6.161-6.777.976 3.1-1.672 9.124-6.161 6.777zm7.4 30.151c-2.334-.559-.45-2.473-.61-4.303 2.29-.5 1.136 3.787.61 4.303zm6.781-92.926c-.568-10.522-9.82-15.605-10.473-24h3.073c4.192 5.252 9.183 9.708 11.1 17.223 2.521 5.108 11.17 9.87 9.243 15.384 2.86 2.28 3.946 6.32 4.93 10.463-8.274-4.041-12.5-12.115-17.873-19.07zm39.456-50.458c-4.6 2.78-10.388-.703-12.95-3.693.194-2.059.644-3.88 1.85-4.922-2.903-4.694-7.647-7.54-9.863-12.928 2.334-4.236 6.298-6.845 13.571-6.16-.017 1.458 1.061 1.814.62 3.694-2.818-.152-4.507.83-5.55 2.466 3.037 4.973 7.383 7.548 11.72 9.844.628 2.067-1.918.957-3.081 1.228.246 4.338 5.5 5.998 3.683 10.471zm12.332-20.306c-2.105-.153-3.208-1.314-3.081-3.694 2.945-.729 4.328 2.135 3.08 3.694zm3.08-60.92c3.59-5.084-3.708-5.397-3.691-10.472 2.843 1.89 4.566 4.889 7.4 6.77.314 2.795-.908 4.023-3.708 3.701zm32.056 55.989c-.722-.093-.518-1.118-.62-1.847 1.053-.22 1.171.483 1.23 1.237-.517-.11-.576.246-.61.61zM555.865 8.77c.866-.983 2.13-1.567 3.7-1.847-.56 1.288-1.824 1.88-3.7 1.847zm45.007 52.304c-2.25.839-3.047 3.118-5.55 3.694 1.629-2.711 4.625-5.15 3.08-9.234 2.589.093 2.52 2.83 2.47 5.54zM263.509 228.56c-10.076-2.022-12.54-9.012-25.301-7.38-2.532-7.226-12.93-3.13-16.049-9.224 1.377-3.224-3.551-5.467-3.084-9.842-3.67-6.17-11.325-3.554-16.66-5.526-4.478-1.65-4.783-7.795-9.872-7.998-.595-1.659-.994-3.52-1.853-4.917-2.132 3.098-2.846-1.37-6.168-.618-5.938 2.802-12.08-.033-17.28-3.072-2.422-.152-2.294 2.226-4.936 1.845-.247-1.87 1.622-3.13-.62-3.698-2.108 2.615-5.82 3.64-9.873 4.308-2.064 2.048-2.039 6.17-5.556 6.762-3.05-3.081-8.42-2.683-12.345-.61-3.024-1.295-4.893-3.732-6.168-6.762.892-3.833 1.971-7.464 2.464-11.687-2.846-3.952-9.218-.626-14.197-2.454 1.691-5.078 4.954-8.59 5.557-14.751-1.818-2.37-5.514-.5-8.029 0-1.843 5.746-6.44 8.75-14.808 7.989-9.244-5.662-3.288-16.884-1.232-25.82 5.522-4.113 12.293-8.946 20.976-4.917 4.682-5.036 15.93-3.69 19.753 0 .272 2.115-.246 3.444-.62 4.917 1.81 1.472 4.189 2.386 7.408 2.462-.118-4.392-1.35-7.676-1.231-12.296 4.919-6.373 13.228-9.36 20.364-13.524v-6.762h3.084c3.186-5.84 9.142-8.928 16.66-10.443.035-8.37 9.559-7.278 15.43-9.834-.672 1.253-2.966 2.514-1.233 4.3 4.699-3.928 14.622-2.65 17.281-8.608-3.364-.905-7.57 4.291-10.492 0-.782-4.053 2.531-4.036 3.084-6.761-1.538-2.1-3.866.245-5.557-1.228 2.345-5.687 8.615-.355 11.113 1.228 2.226-1.524-2.795-2.404-1.24-3.072 6.55.685 11.214-2.946 16.048-3.081-2.056 3.563-8.207 6.076-8.028 9.834 6.04-.482 9.753 1.346 14.196 2.463 1.037-2.125-.501-4.071 0-7.372-.832-1.218-4.307.195-4.324-1.836.977-3.334 3.398-5.222 3.704-9.225-1.852-2.665-4.18-4.857-7.408-6.144-1.173-3.952-.06-10.18-3.084-12.288-3.96.77-4.682 4.765-9.26 4.917-1.063-.787-2.422-1.27-2.473-3.072-.298-1.938 1.894-1.396 1.232-3.681-2.617-.677-3.781-2.793-5.557-4.308-3.058 1.507-6.312-.178-9.872 0-7.68 5.831-1.682 22.842-17.9 20.904-1.691 3.639-1.53 9.131-6.789 9.216-3.645-3.64.094-6.55 1.24-10.452-8.971.745-10.645-5.797-19.132-5.526.951-3.53-.204-3.072-1.232-5.535 6.89-8.302 20.008-10.401 30.857-14.76-.45 1.76-4.163 2.311-2.472 4.308 3.942.567 8.504-1.895 12.344-.618.501-4.197-6.389-4.273-5.556-6.761 6.278 2.403 12.684-3.623 15.428-8.616 3.229.144 6.168-.008 8.64-.609 2.074 1.82 3.892 3.901 6.169 5.526-3.016 5.391-12.787 4.071-17.28 7.998 2.327 1.718 4.927-.542 8.02 0 3.168 3.605 6.855 6.694 13.576 6.762 1.028-1.93-2.294-2.514-.612-3.072 3.322 1.269 5.777 1.21 6.788-2.463.12-2.573-3.033-1.896-2.472-4.917 3.084-2.31 3.551 2.353 6.168 2.454 2.829-1.075 6.057-1.76 6.797-4.917-1.7-2.606-6.534-2.107-8.02-4.917-.502-2.132.917-2.36.611-4.299-3.942-2.014-9.677-2.243-11.104-6.762-12.26.364-28.342-2.979-29.005 7.38.57 1.48 4.486-.372 3.704 2.463-1.928 2.378-4.825 3.8-8.028 4.917-1.564-1.507 1.3-1.312.62-3.69-1.41-.855-3.849-.669-3.704-3.08.645-1.406.39-3.708 1.232-4.918 2.871-1.447 8.606-.034 9.26-3.69-5.99-3.723-9.838 2.59-14.188 4.3.28-1.77 2.183-1.93 1.852-4.3-4.333-.93-9.787 1.93-12.345 3.072 1.07 2.996 4.503 2.7 6.789 3.073-1.784 1.48-2.167 3.385-1.232 6.152-1.19.863-2.49 1.625-4.325 1.845-.535-2.378 2.702-.999 1.852-3.69-3.831-2.166-6.89 1.176-8.02 3.69-4.672-.474-11.758 1.473-12.964-2.463 5.208 1.414 8.767-.084 12.344-1.845.425-2.47-2.6-1.506-2.464-3.69.408-3.063 4.112-2.868 4.928-5.534-3.271-2.031-6.635 2.835-9.872 3.072-3.246.245-9.66-3.919-11.113-4.3-9.88-2.631-18.572-.042-22.837 6.145 1.997 2.97 7.485-2.175 10.493 0-.901 2.183-1.36 4.79-3.084 6.152-5.54-2.268-15.021-.618-19.753-3.69-5.574 2.006-15.166 2.108-22.837 3.69-19.626-6.88-44.587-5.881-62.946 1.227-.213 1.693 1.767 4.316 0 5.535-5.14-.863-12.931-1.134-14.809 3.072 1.393 3.47 6.788-.702 8.64 2.463C13.508 35.47 4.036 34.633 0 39.22c9.949 7.134 28.368 7.879 38.877 2.463 4.163 3.639 14.987.643 15.429 7.989-2.345 1.675.246 4.637-1.852 6.761 1.47 1.947 4.469-1.455 4.936 1.236-2.26 3.284 0 11.07-3.704 12.914.858 1.803 3.016 2.32 3.084 4.917-5.081 12.238-19.71 17.95-14.809 38.109 8.581.88 5.76 13.117 9.864 18.449.102 1.735-1.852 1.43-1.844 3.072.875 1.997 3.552 2.2 4.936 3.69-.696 5.103 3.17 8.573 6.169 7.989-2.694-7.151-5.43-14.26-8.03-21.513.96-.685 1.292-1.989 3.093-1.836 2.328 1.278 1.58 3.25 1.232 6.144 4.41 7.904 10.722 13.904 14.188 22.748-.034 2.023-1.75 2.353-1.231 4.917 7.501 5.442 16.94 13.397 29.005 10.452 3.678.88 4.163 4.959 8.02 6.762 5.734 2.674 14.69.922 14.196 10.451 4.987 2.818 8.98 6.635 14.809 8.615.892-2.183.934-5.221 4.316-4.916 2.948 3.419 4.341 8.378 3.704 15.368-3.56 4.858-9.371 7.473-9.872 15.369-.332 2.175 2.183 1.515 1.852 3.681-.62 2.048-3.416 1.93-3.084 4.917 5.998 9.385 12.786 18 17.28 28.892 6.338 6.102 13.594 3.58 17.281 11.07 4.418 8.954-.57 23.29 2.472 35.646 1.275 5.187 2.897 13.27.62 19.058 4.07 3.335 1.3 13.456 6.177 15.978.357-1.075-.748-3.614.612-3.681.892 1.362 1.546 2.962 1.232 5.526-.094 1.134-2.09.38-2.464 1.227.985 2.514 1.155 3.038.62 6.153.484 1.354 2.897.795 3.084 2.454-.629.804-.603 2.268-1.24 3.072 1.622 3.512 4.961 5.306 6.176 9.225 2.957 1.15 5.09 3.122 6.788 5.534 5.888.982 15.055 8.709 20.365 2.463-5.123-3.3-11.486-5.366-13.576-11.687 2.251-2.065 2.701-5.916 4.315-8.607-1.384-2.107-5.81-1.176-6.168-4.308 2.71-2.429 3.5-6.762 4.937-10.443-2.175-.296-3.9-1.04-4.316-3.072 2.098-.178 5.004.474 6.168-.618.127-1.92-.408-4.519.62-5.534 12.531 1.887 11.928-9.284 6.788-12.906 2.965.118 4.52 1.641 8.02 1.227 4.58-1.185 3.628-6.593 6.168-11.07 2.855-5.018 9.584-7.439 6.177-15.978 3.738-4.274 9.082-6.94 16.66-7.38 4.996-6.558 8.3-15.749 6.797-27.047 3.772-7.363 15.462-14.107 8.632-24.601zM170.326 87.79c-.051 2.742-4.46 1.844-6.168 1.227.747-1.71 3.789-1.143 6.168-1.227zm51.833-61.475c-.017.6-.747.474-1.232.61.017-.593.756-.475 1.232-.61zm-82.079 67c1.632-5.754 4.104-10.662 11.113-11.069-5.65 1.752-5.072 9.707-11.113 11.07zm11.113.619c1.844-1.854 5.641-1.76 8.64-2.455-1.529 1.921-5.632 3.986-8.64 2.455zm3.704-11.688c2.982-1.05 5.48.813 8.029.618v2.454c-4.647-.93-4.979 2.43-6.797 4.308-3.177-.863-1.121-5.924-1.232-7.38zm-.612-3.063c-5.522 2.666-10.28-1.608-15.428 0 3.194-2.75 14.893-8.946 15.428 0zm-20.373-57.785c2.677-.83 7.494.999 11.113 1.227-1.555 1.346-8.165.83-11.113.618v-1.845zm-.611 39.336c.246 2.496-.221 4.29-2.473 4.307-1.249-1.548-.713-5.264 2.473-4.307zm-22.837-19.668c2.107-1.71 5.335-4.9 8.02-2.463-1.69 1.794-4.724 2.26-8.02 2.463zm7.408-12.297c-4.171-.668-5.429 1.557-9.252 1.227-.476-3.96 8.955-5.45 9.252-1.227zm44.434 158.604c-1.088-.153-1.41-1.058-1.232-2.463 1.911-.28 2.2 1.557 1.232 2.463z"/><path fill="#4F8EFF" fill-rule="nonzero" d="M444.482 18.412c-1.486-.18-2.444.152-2.605 1.298.877.206 1.244.93 2.605.653v-1.951zM214.214 22.03c-.653-2.488-5.354-.984-4.557 1.952 2.149-.018 4.61.268 4.557-1.952zm-29.332 15.046c1.862.125 3.545.08 3.25-1.952-.851-.832-2.4-.832-3.25 0v1.952zm146.685 22.763c-5.77 1.893-2.275 6.113-3.673 8.793 5.231-2.162 15.694 1.038 15.298-6.908-4.161-2.231-6.31-6.51-9.182-10.056.547-1.106 1.482-1.833 1.836-3.138-3.614.026-1.81-3.07-3.673-3.77-3.723 1.202-7.69 2.162-6.73 8.162 1.533 2.845 6.419 2.222 6.124 6.917zm-8.061 2.173c-.6-2.872 1.019-3.746 1.79-5.382-3.663-3.457-7.393.29-10.745 1.614 1.281 2.754-.345 3.302-1.192 5.375 3.525 1.576 7.403-.733 10.147-1.607zM52.32 58.463c-2.041-.304-2.65.815-3.25 1.951 1.093 1.102 3.823.52 3.25-1.951zM694.873 76.8c.197 2.622.949 4.672 3.894 4.547.448-3.258-1.557-4.064-3.894-4.548zm8.937 17.167c-.68-4.225 2.472-1.518 4.553-1.838 1.392-.54 1.267-2.716 3.41-2.455-1.83-4.149-8.143-3.474-11.366-6.122 1.064 3.247 1.306 5.414-.571 7.96 1.01 1.156 1.658 2.716 3.974 2.455zm-342.735.165c.277-1.244 1.862-1.173 1.298-3.25-1.137-.044-2.024.144-2.606.654-.17 1.477.162 2.435 1.308 2.596zm340.708 1.402c4.703 6.521.911 11.755-3.749 15.38-5.975-.407-10.695 2.616-13.12 7.384 2.347 1.592 2.691 5.148 6.25 5.538 1.101-4.624 5.58-7.91 10.619-6.766 1.083-3.853 7.205-2.736 9.99-4.92-2.312-7.148-1.272-17.437-9.99-16.616z"/><path fill="#4F8EFF" fill-rule="nonzero" d="M359.55 100.266c4.315.905 4.368-3.894 3.25-6.508-4.272-1.208-4.683 4.1-3.25 6.508zm18.85 3.762c-2.588.448-7.208-1.137-7.808 1.298 1.934 1.316 3.805 2.695 7.154 2.605-.475-1.987 1.12-1.915.654-3.903zm48.795 8.386c-1.728.01-3.832-.358-3.903 1.298.985 1.003 4.458 1.164 3.903-1.298zM561.51 186.5c-.815 2.506-1.486 8.483.653 10.113 2.194 1.007 3.788-.483 5.202-1.785-.716-3.906-2.22-7.092-5.855-8.328zm109.974 11.365c-2.625-1.149-2.83-4.744-5.937-5.397-3.14 7.43-10.771 10.331-16.046 15.613-1.816.43-1.742-1.042-3.558-.604-3.9 5.125 2.07 9.092 2.372 13.811 5.97.43 10.975 4 16.635 1.802.99-5.397 2.682-10.092 6.534-12.612-2.895-3.736-2.69-8.852 0-12.613zm-34.32 21.592c-.456-.142-.697-.51-.597-1.222-1.27-1.33-2.68-.125-3.626.603-1.037-2.595-4.488-2.762-3.609-7.298-8.554-4.143-13.142-12.278-23.504-14.596v2.427c11.781 7.373 13.955 24.43 27.113 30.397.108-.711.954-.661 1.809-.611.323-3.716 1.286-6.796 2.414-9.7zm50.734-8.417c-4.024-.762-13.582-2.633-11.693 2.604 3.56-2.623 11.007 2.274 11.693-2.605zm63.537 24.079c-.308-1.886 1.9-1.35 1.241-3.583-2.97-1.325-5.34-3.244-6.838-5.987-9.081-1.869-20.704-11.035-27.98-2.396-1.728-2.94-7.865-13.827-10.561-4.785.881 2.15 3.124 2.973 3.107 5.98 6.513 1.901 13.95 2.923 16.168 8.967-.634 1.977-3.45 1.87-3.107 4.785 5.34-2.018 7.326 1.655 9.945 2.396 7.018 1.96 5.777-3.714 9.946-4.191 4.433-.503 5.649 3.071 7.463 6.588 2.979.51 5.957 1.037 8.704 1.795-.59-5.221-5.743-6.045-8.088-9.57zm-68.592-5.967c.571-5.184-2.19-6.724-2.832-10.565 1.83-.48 2.973-1.72 3.41-3.739-4.497.821-5.905 2.464-9.66 0-.22 3.088-1.541 4.945-2.277 7.46 2.637.642.595 6.4 2.84 7.46 2.237-1.07.563-6.425 2.848-7.46 1.22 3.011 1.51 7.04 5.671 6.844zm-43.269-3.676c4.154.68 5.882-1.057 5.202-5.201-3.617-3.814-8.792 1.799-5.202 5.2zm115.716 3.239c.726 3.858 8.677 4.413 8.462-.654-1.146-.671-6.366.107-8.461.654zm-92.759 9.748c-7.177-4.556-18.438-6.973-26.86-5.846 4.48 5.918 19.213 7.619 26.86 5.846zm0 .413c1.921 1.844 7.28 1.406 8.953-.644-1.736-.797-8.195-1.639-8.953.644zm16.824.862c1.011-2.238-4.352-3.088-3.904-.653.08 1.432 2.758.277 3.904.653zm5.559 3.193c2.902.61 6.497-3.177 8.953-5.2-3.51-1.343-7.483 2.023-8.953 5.2zm-12.384-2.451c-.384 2.292 3.376 3.76 3.904 1.29-1.155-.573-1.647-1.809-3.903-1.29zm77.448 30.66c-1.561-2.091-4.41-2.235-5.58-4.92-1.288-2.963-.35-7.298-1.237-11.075-5.144-.677-2.687-6.24-4.956-10.457h-1.86c-4.249 5.004-2.235 16.232-8.677 19.069-3.728-2.862-8.787-4.395-11.158-8.612 2.021-1.871 4.521-5.207 3.728-7.993-4.846 1.567-8.07-.61-11.782-1.846-1.39.254.094 3.37-1.86 3.074-5.554-2.134-5.886 5.96-9.913 7.383-1.75-1.134-2.798-2.972-5.58-3.082-6.21.805-5.51 8.485-13.01 7.994-2.022 12.972-20.97 9.128-27.889 17.222-5.647 10.255 2.927 24.988-5.579 33.828 6.45 6.842 13.624-4.615 22.924-.61 6.372-5.02 21.055-9.737 29.74-4.92.273 2.592 2.44 3.312 1.868 6.766 3.011-.084 3.592-2.582 6.194-3.073-.24 5.402 3.506 6.376 1.86 11.685 4.29 4.454 10.408.804 14.878 3.683 2.798-2.134 6.492-3.387 11.15-3.683 7.542-12.608 23.82-16.546 24.792-35.674-1.493-3.522-4.905-6.046-6.816-9.839-.649-1.287-.256-3.599-1.237-4.92z"/><path fill="#4F8EFF" fill-rule="nonzero" d="M701.518 246.495c.877.206 1.244.931 2.605.654v-1.952c-1.477-.188-2.435.153-2.605 1.298zm-235.317 11.432c-2.582 1.8-5.868 1.602-7.58 3.748-1.974 2.499.599 6.316 0 9.392-.975 5.014-6.539 10.012-1.262 16.276 2.73 1.387 5.782.086 8.208-.63 2.486-11.864 15.588-25.84 8.216-37.549-2.974 2.955-4.086 6.324-7.582 8.763zm247.362 80.443c5.098.054 7.778-2.792 8.656-7.806-6.713-1.79-10.003 1.102-8.656 7.807z"/></g></svg>