<svg width="44" height="50" xmlns="http://www.w3.org/2000/svg"><path d="M35.1 0v.02c.02.37.48 7.39 8.9 9.83 0 0-.4 15.51-5.33 24.35-4.6 8.26-12.72 12.91-15.61 14.37l-.24.12c-.52.26-.82.39-.82.39S11 44.37 5.33 34.2C.5 25.56.02 10.53 0 9.88v-.03C8.42 7.41 8.88.4 8.9.02V0h26.2zM14.41 15.92l-.04.05a9.64 9.64 0 0 0-2.37 6.3A9.73 9.73 0 0 0 21.7 32a9.76 9.76 0 0 0 6.09-2.1v-3.44l-.04.06a7.36 7.36 0 0 1-6.03 3.1 7.35 7.35 0 0 1-7.33-7.27v-.1l.02-6.33zm7.37-3.33a9.84 9.84 0 0 0-2.42.3v2.48l.07-.03a7.34 7.34 0 0 1 2.34-.37 7.35 7.35 0 0 1 7.33 7.35v.1l-.02 8.62h2.37l.03-8.44v-.13a4.99 4.99 0 0 0 0-.14 9.73 9.73 0 0 0-9.7-9.74zM15.67 6v16.43a6.04 6.04 0 0 0 5.9 5.9h.15a6.06 6.06 0 0 0 4.2-1.65 5.94 5.94 0 0 0 1.87-4.2 5.93 5.93 0 0 0-1.66-4.29 6.05 6.05 0 0 0-4.25-1.86 6.12 6.12 0 0 0-3.5 1l-.34.23V6.01L15.69 6zm6.11 12.66h.04a3.7 3.7 0 0 1 2.6 1.14 3.62 3.62 0 0 1 1.01 2.62A3.63 3.63 0 0 1 24.3 25a3.68 3.68 0 0 1-2.64 1 3.69 3.69 0 0 1-3.61-3.75 3.6 3.6 0 0 1 1.15-2.57 3.7 3.7 0 0 1 2.56-1h.08z" fill="#76B41B" fill-rule="evenodd"/></svg>