<svg width="44" height="47" xmlns="http://www.w3.org/2000/svg"><path d="M39.82 11.81A21.76 21.76 0 0 1 44 24.06H33.7a44.07 44.07 0 0 0-1.15-9.52 39.87 39.87 0 0 0 7.27-2.72zm-8.61 3.04c.69 2.85 1.06 6 1.11 9.2H22.7v-8.27c2.97-.04 5.82-.35 8.5-.93zM22.7 2.83c3.32.5 6.4 4.49 8.16 10.69-2.58.55-5.32.85-8.16.89V2.83zm4 .4a21.9 21.9 0 0 1 12.26 7.47c-1.82.9-4.45 1.9-6.75 2.5v-.01c-1.28-4.56-3.22-7.99-5.5-9.96zm-5.38 31.85v11.58c-3.45-.49-6.43-4.58-8.14-10.53 2.64-.6 5.43-1 8.14-1.05zm-9.49 1.39c1.24 4.35 3.15 7.8 5.47 9.79A21.88 21.88 0 0 1 5.15 38.9a36.54 36.54 0 0 1 6.69-2.43zm-4.45-11.1a2.07 2.07 0 0 0 2.95.25 43.7 43.7 0 0 0 1.15 9.52c-2.7.7-5.18 1.64-7.2 2.65A21.73 21.73 0 0 1 0 25.43h7.1c.1 0 .2-.02.28-.06zm13.94.07v8.27c-2.83.05-5.74.46-8.48 1.1-.69-2.83-1.1-6-1.15-9.37h9.63zm1.38 9.64a41.67 41.67 0 0 1 8.16.97c-1.7 5.99-4.7 10.12-8.16 10.6zm9.51 1.29c2.5.64 4.8 1.5 6.7 2.49a21.9 21.9 0 0 1-12.19 7.4c2.34-2.01 4.26-5.49 5.5-9.9zM44 25.44a21.77 21.77 0 0 1-4.26 12.34.66.66 0 0 0-.17-.13c-2-1.04-4.4-1.94-7.01-2.61.7-2.9 1.1-6.15 1.14-9.6H44zm-11.68 0a42.71 42.71 0 0 1-1.12 9.27 43.04 43.04 0 0 0-8.5-1v-8.28zM8.98 0a8.6 8.6 0 0 1 8.6 8.6c0 4.54-7.71 15.4-8.04 15.86a.69.69 0 0 1-1.12 0C8.09 24 .38 13.14.38 8.59A8.6 8.6 0 0 1 8.98 0zM1.69 16.25c1.58 3 3.5 5.95 4.78 7.8H0a21.75 21.75 0 0 1 1.68-7.8zm14.98-.77.12.01.89.1a44.37 44.37 0 0 0 3.64.2v8.27H11.7c0-.05 1.04-1.85 2.18-3.8l.46-.8 2.33-3.98zM8.98 2.76a5.85 5.85 0 0 0-5.84 5.83 5.85 5.85 0 0 0 5.84 5.85 5.85 5.85 0 0 0 5.83-5.85 5.85 5.85 0 0 0-5.83-5.83zm12.34.07v11.58a42.5 42.5 0 0 1-4.01-.24c.97-2.1 1.64-4.09 1.64-5.58a9.8 9.8 0 0 0-.9-4.11 6.33 6.33 0 0 1 3.27-1.65z" fill="#76B41B" fill-rule="evenodd"/></svg>