<svg width="44" height="44" xmlns="http://www.w3.org/2000/svg"><path d="M34.99 20.73h-5.95a7.1 7.1 0 0 0-1.17-2.81l4.2-4.2a4.6 4.6 0 1 0-1.78-1.8l-4.21 4.21a7.1 7.1 0 0 0-2.82-1.17V9.01a4.6 4.6 0 1 0-2.53 0v5.95a7.11 7.11 0 0 0-2.81 1.17l-4.2-4.2a4.6 4.6 0 1 0-1.8 1.78l4.2 4.2a7.12 7.12 0 0 0-1.16 2.82H9.01a4.6 4.6 0 1 0 0 2.53h5.95a7.11 7.11 0 0 0 1.17 2.82l-4.2 4.2a4.6 4.6 0 0 0-5.49.78 4.6 4.6 0 0 0 0 6.5 4.6 4.6 0 0 0 7.27-5.48l4.2-4.2a7.1 7.1 0 0 0 2.82 1.16v5.95a4.6 4.6 0 1 0 2.54 0v-5.95a7.1 7.1 0 0 0 2.81-1.17l4.2 4.2a4.6 4.6 0 1 0 1.8-1.78l-4.2-4.2a7.1 7.1 0 0 0 1.16-2.82h5.95a4.6 4.6 0 1 0 0-2.53z" fill="#76B41B" fill-rule="evenodd"/></svg>