<svg width="44" height="44" xmlns="http://www.w3.org/2000/svg"><path d="M43.646.354c.274 6.359 1.66 12.519-3.882 18.06L25.542 32.638l-14.178-14.18L25.586 4.235C31.128-1.306 37.29.08 43.646.354zM12.473 9.088a2.555 2.555 0 0 0-2.526.677L.545 19.167a.45.45 0 0 0-.12.446.45.45 0 0 0 .326.326l5.762 1.543 11.034-11.034-5.074-1.36zm-4.52 12.78 14.18 14.179 2.496-2.497-14.178-14.179-2.497 2.497zm11.262 13.088-10.17-10.17L7.33 26.5a1.386 1.386 0 0 0 0 1.956l8.214 8.215a1.386 1.386 0 0 0 1.956 0l1.715-1.715zm15.698-3.429-1.36-5.074-11.034 11.034 1.543 5.762a.45.45 0 0 0 .326.326.45.45 0 0 0 .446-.12l9.402-9.402a2.55 2.55 0 0 0 .677-2.526zM6.6 30.815a.646.646 0 0 1 .913.913L2.89 36.351a.646.646 0 0 1-.914-.913L6.6 30.815zm2.836 2.836a.646.646 0 0 1 .913.913l-9.248 9.247a.646.646 0 0 1-.913-.913l9.248-9.247zm2.835 2.835a.646.646 0 0 1 .913.914l-4.623 4.623a.646.646 0 0 1-.913-.914l4.623-4.623zm13.85-18.607a2.635 2.635 0 1 0-3.726 3.726 2.635 2.635 0 0 0 3.725-3.726zm9.357-9.358a3.923 3.923 0 1 0-5.549 5.548 3.923 3.923 0 0 0 5.549-5.548z" fill="#76B41B" fill-rule="evenodd"/></svg>