<svg width="44" height="43" xmlns="http://www.w3.org/2000/svg"><path d="m22.916 17.954 3.019-3.018a.914.914 0 0 1 .648-.269h2.907a2.751 2.751 0 0 1 5.343.917 2.751 2.751 0 0 1-5.343.917h-2.528l-4.046 4.046v1.074l4.046 4.046h2.528a2.751 2.751 0 0 1 5.343.917 2.751 2.751 0 0 1-5.343.916h-2.907a.914.914 0 0 1-.648-.268l-3.019-3.018V38.51a3.667 3.667 0 0 0 3.667 3.666h3.667a3.672 3.672 0 0 0 3.54-2.714l-2.226-3.71h-.554a2.751 2.751 0 0 1-5.343-.916 2.751 2.751 0 0 1 5.343-.917l1.072-.001c.323 0 .622.169.787.446l2.405 4.006c3.237-.623 5.976-3.408 5.976-6.744 0-.564-.088-1.098-.236-1.607l-3.937 1.968a.916.916 0 1 1-.82-1.639l4.425-2.212C42.667 26.445 44 23.874 44 21.074c0-1.858-.65-3.606-1.65-5.06l-4.071 4.75a.918.918 0 0 1-.696.32h-2.75a.917.917 0 0 1 0-1.833h2.329l4.85-5.659c.635-1.04 1.072-2.227 1.072-3.508 0-3.649-2.981-6.68-6.245-7.24l-2.08 4.851a.916.916 0 0 1-.842.556H31.01a2.751 2.751 0 0 1-5.343-.917 2.751 2.751 0 0 1 5.343-.917h2.303l2.05-4.786a3.259 3.259 0 0 0-2.817-1.63h-5.962a3.667 3.667 0 0 0-3.667 3.666v14.288zm5.5 15.965a.917.917 0 1 1 0 1.835.917.917 0 0 1 0-1.835zm3.667-8.252a.917.917 0 1 1-.001 1.835.917.917 0 0 1 .001-1.835zm0-11a.917.917 0 1 1-.001 1.835.917.917 0 0 1 .001-1.835zm-3.667-8.25a.917.917 0 1 1 0 1.835.917.917 0 0 1 0-1.835zM9.166.944A3.252 3.252 0 0 1 11.454 0h5.962a3.667 3.667 0 0 1 3.667 3.667v13.886l-.383-.48a6.416 6.416 0 0 0-5.01-2.407h-.107c-.49 0-.89.385-.916.867v.05c0 .506.41.917.916.917h.107a4.58 4.58 0 0 1 3.578 1.72l1.815 2.268v7.549l-.491-.492a6.413 6.413 0 0 0-4.536-1.879l-.528.002a.916.916 0 0 0-.86.864s-.002 0-.002.05c0 .603.431.917 1.39.917 1.215 0 2.38.483 3.24 1.342l1.787 1.787v7.88a3.667 3.667 0 0 1-3.667 3.666H13.75a3.672 3.672 0 0 1-3.61-3.024l.209-1.255a3.666 3.666 0 0 1 3.615-3.063h.703a.917.917 0 0 0 0-1.833h-.703a5.498 5.498 0 0 0-5.423 4.594l-.119.71c-3.102-.734-5.672-3.448-5.672-6.68 0-.897.22-1.714.558-2.481a.901.901 0 0 0 .09-.079l1.52-1.52a6.42 6.42 0 0 1 4.537-1.878h.634a.917.917 0 0 0-.005-1.834h-.63a8.25 8.25 0 0 0-5.833 2.417l-1.11 1.11C.98 25.704 0 23.471 0 21.071c0-1.967.728-3.807 1.827-5.309l1.066.711a5.607 5.607 0 0 0 3.11.942h1.33a.917.917 0 0 0 0-1.834h-1.33a3.777 3.777 0 0 1-2.093-.633l-1.568-1.046a.971.971 0 0 0-.227-.11C1.412 12.706.916 11.445.916 10.08c0-3.714 3.087-6.787 6.417-7.268a6.417 6.417 0 0 0 6.417 6.351h.922a.917.917 0 0 0-.005-1.833h-.917a4.584 4.584 0 0 1-4.584-4.584V.941v.003z" fill="#76B41B"/></svg>