<?xml version="1.0" encoding="UTF-8"?>
<svg id="Layer_1" data-name="Layer 1" xmlns="http://www.w3.org/2000/svg" viewBox="0 0 1000 1000">
  <defs>
    <style>
      .cls-1 {
        fill: #f6be4f;
        stroke: #f6be4f;
      }

      .cls-1, .cls-2, .cls-3, .cls-4 {
        stroke-miterlimit: 10;
      }

      .cls-2 {
        fill: #7fc6c5;
        stroke: #7fc6c5;
      }

      .cls-3 {
        fill: #cad0d4;
        stroke: #cad0d4;
      }

      .cls-4 {
        fill: #f17b7b;
        stroke: #f17b7b;
      }
    </style>
  </defs>
  <rect class="cls-3" x="663.75" y="442.46" width="17.5" height="161.52" transform="translate(875.75 -304.25) rotate(65.92)"/>
  <rect class="cls-3" x="459.32" y="498.59" width="17.5" height="161.52" transform="translate(1025.9 85.83) rotate(87.44)"/>
  <rect class="cls-3" x="469.28" y="387.43" width="17.5" height="161.52" transform="translate(1147.11 461.24) rotate(135)"/>
  <rect class="cls-3" x="676.28" y="333.04" width="17.5" height="161.52" transform="translate(1462.02 222.02) rotate(135)"/>
  <rect class="cls-3" x="662.18" y="679.32" width="17.5" height="161.52" transform="translate(635.79 -253.15) rotate(39.45)"/>
  <rect class="cls-3" x="537.88" y="701.47" width="17.5" height="161.52" transform="translate(1483.34 599.81) rotate(113.93)"/>
  <rect class="cls-3" x="365.4" y="712.41" width="16.72" height="233.57" transform="translate(-14.08 1651.9) rotate(-130.5)"/>
  <rect class="cls-3" x="276.71" y="729.33" width="17.5" height="161.52" transform="translate(724.7 1548.22) rotate(168.66)"/>
  <rect class="cls-3" x="501.29" y="596.56" width="17.5" height="161.52" transform="translate(613.09 1518.91) rotate(-150)"/>
  <rect class="cls-3" x="351.46" y="649.59" width="17.5" height="161.52" transform="translate(1131.78 469.87) rotate(97.6)"/>
  <rect class="cls-3" x="644.06" y="562.45" width="17.5" height="161.52" transform="translate(1554.98 482.06) rotate(125.3)"/>
  <rect class="cls-3" x="805.88" y="592.36" width="18.9" height="189.98" transform="translate(1371.96 -222.25) rotate(81.33)"/>
  <rect class="cls-3" x="927.07" y="460.11" width="18" height="234" transform="translate(1712.53 1355.83) rotate(-166.57)"/>
  <rect class="cls-3" x="820.56" y="457.5" width="18" height="234" transform="translate(1833.47 472.67) rotate(139.5)"/>
  <rect class="cls-3" x="878.71" y="249.82" width="18" height="234" transform="translate(1839.89 240.65) rotate(150)"/>
  <rect class="cls-3" x="697.6" y="183.5" width="18" height="234" transform="translate(732.71 -466.9) rotate(68.91)"/>
  <rect class="cls-3" x="495.55" y="239.14" width="18" height="234" transform="translate(780.6 -196.32) rotate(81.33)"/>
  <rect class="cls-3" x="708.82" y="77.71" width="18" height="234" transform="translate(1245.36 -329.6) rotate(120)"/>
  <rect class="cls-3" x="236.79" y="549.14" width="17.5" height="161.52" transform="translate(633.95 1183.26) rotate(166.23)"/>
  <rect class="cls-3" x="286.57" y="479.13" width="17.5" height="161.52" transform="translate(920.24 459.03) rotate(108.64)"/>
  <rect class="cls-3" x="288.54" y="377.95" width="17.5" height="161.52" transform="translate(411.43 -75.87) rotate(45)"/>
  <rect class="cls-3" x="125.42" y="426.18" width="17.5" height="161.52" transform="translate(658.54 512.65) rotate(105.45)"/>
  <rect class="cls-3" x="88.38" y="251.44" width="18" height="248.41" transform="translate(55.5 761.45) rotate(-159.27)"/>
  <rect class="cls-3" x="846" y="369" width="18" height="234" transform="translate(1341 -369) rotate(90)"/>
  <rect class="cls-3" x="73.68" y="488.03" width="17.5" height="161.52" transform="translate(345.55 1079.76) rotate(161)"/>
  <rect class="cls-3" x="182.62" y="602.47" width="17.5" height="161.52" transform="translate(898.11 746.06) rotate(110.73)"/>
  <rect class="cls-3" x="302.18" y="580.32" width="17.5" height="161.52" transform="translate(130.98 1369.12) rotate(-140.55)"/>
  <rect class="cls-3" x="477" y="18" width="18" height="234" transform="translate(621 -351) rotate(90)"/>
  <rect class="cls-3" x="238.06" y="80.69" width="18" height="248.41" transform="translate(193.15 521.31) rotate(-120)"/>
  <rect class="cls-3" x="367.88" y="153.42" width="18" height="189" transform="translate(-24.5 42.01) rotate(-6.18)"/>
  <rect class="cls-3" x="241.43" y="214.64" width="18" height="189" transform="translate(-127.33 433.95) rotate(-69.27)"/>
  <circle class="cls-1" cx="576" cy="576" r="72"/>
  <circle class="cls-1" cx="756" cy="486" r="36"/>
  <circle class="cls-2" cx="616.5" cy="337.5" r="58.5"/>
  <circle class="cls-4" cx="391.5" cy="364.5" r="67.5"/>
  <ellipse class="cls-2" cx="380.01" cy="583" rx="47.01" ry="47"/>
  <circle class="cls-2" cx="724.5" cy="697.5" r="31.5"/>
  <circle class="cls-1" cx="625.5" cy="814.5" r="31.5"/>
  <circle class="cls-4" cx="468" cy="747" r="45"/>
  <circle class="cls-2" cx="301.5" cy="895.5" r="31.5"/>
  <circle class="cls-1" cx="265.5" cy="715.5" r="31.5"/>
  <circle class="cls-2" cx="112.5" cy="652.5" r="31.5"/>
  <circle class="cls-1" cx="58.5" cy="481.5" r="31.5"/>
  <circle class="cls-1" cx="220.5" cy="535.5" r="40.5"/>
  <circle class="cls-4" cx="139.5" cy="265.5" r="31.5"/>
  <circle class="cls-1" cx="364.5" cy="139.5" r="31.5"/>
  <circle class="cls-1" cx="616.5" cy="139.5" r="31.5"/>
  <circle class="cls-2" cx="823.5" cy="256.5" r="31.5"/>
  <circle class="cls-4" cx="958.5" cy="481.5" r="31.5"/>
  <circle class="cls-1" cx="913.5" cy="670.5" r="31.5"/>
</svg>